<svg width="50" height="50" viewBox="0 0 50 50" fill="none" xmlns="http://www.w3.org/2000/svg">
<rect width="50" height="50" rx="3" fill="#DACBBA"/>
<path d="M14.5437 9.375C15.9844 9.375 17.3156 9.48438 18.5375 9.8125C19.7563 10.0313 20.7594 10.4875 21.65 11.0344C22.5438 11.5844 23.2031 12.3656 23.6531 13.3687C24.0906 14.3687 24.3281 15.5906 24.3281 16.9219C24.3281 18.4719 23.9969 19.8031 23.2156 20.8031C22.5437 21.8031 21.4469 22.6969 20.1 23.3562C21.9937 23.9062 23.4344 24.9062 24.3125 26.2375C25.1906 27.5688 25.7531 29.2281 25.7531 31.1219C25.7531 32.6719 25.425 34.0031 24.8625 35.1156C24.3014 36.2354 23.4594 37.1905 22.4187 37.8875C21.4187 38.5594 20.1969 39.1062 18.8656 39.4375C17.5616 39.7819 16.2205 39.9666 14.8719 39.9875L0 40.0094V9.375H14.5437ZM13.6531 21.8063C14.8719 21.8063 15.8719 21.4781 16.6438 20.9156C17.4125 20.3531 17.7531 19.3625 17.7531 18.1438C17.7531 17.4688 17.6438 16.8125 17.425 16.3719C17.1882 15.9253 16.8447 15.5442 16.425 15.2625C15.9717 15.0153 15.4871 14.8303 14.9844 14.7125C14.4344 14.6031 13.8719 14.6031 13.2125 14.6031H6.78125V21.8219C6.78125 21.8062 13.6531 21.8063 13.6531 21.8063ZM13.9812 34.9094C14.6531 34.9094 15.3125 34.8 15.875 34.6906C16.425 34.5812 16.9875 34.3594 17.425 34.0156C17.8625 33.6719 18.2063 33.3438 18.5375 32.7969C18.7563 32.2469 18.975 31.575 18.975 30.7938C18.975 29.2437 18.5375 28.1313 17.6437 27.35C16.7531 26.6781 15.5312 26.35 14.0906 26.35H6.78125V34.8938H13.9844L13.9812 34.9094ZM35.4125 34.8C36.3062 35.6906 37.6344 36.1313 39.4062 36.1313C40.625 36.1313 41.7375 35.8 42.6313 35.2375C43.5219 34.5656 44.0687 33.9062 44.2875 33.2375H49.725C48.8312 35.8969 47.5 37.7906 45.7313 39.0125C43.9625 40.1219 41.8469 40.7812 39.2938 40.7812C37.6611 40.7885 36.042 40.4863 34.5219 39.8906C33.1538 39.3821 31.9331 38.5425 30.9688 37.4469C29.9401 36.4253 29.1764 35.1681 28.7437 33.7844C28.1969 32.3438 27.9625 30.7938 27.9625 29.0094C27.9625 27.35 28.1812 25.7844 28.7437 24.3438C29.3062 22.9062 30.075 21.6813 31.0781 20.5719C32.0781 19.5719 33.3 18.6781 34.6312 18.1281C36.1156 17.5371 37.6992 17.2348 39.2969 17.2375C41.1906 17.2375 42.85 17.5656 44.2906 18.3469C45.7281 19.1281 46.8438 20.0094 47.7344 21.3406C48.625 22.5594 49.2844 24 49.7375 25.5531C49.9563 27.1031 50.0656 28.6656 49.9562 30.4375H33.8625C33.8625 32.25 34.5187 33.9062 35.4125 34.8ZM42.4125 23.1375C41.6312 22.3562 40.4062 21.9156 38.9656 21.9156C37.9656 21.9156 37.1969 22.1344 36.525 22.4656C35.8531 22.7938 35.4125 23.2469 34.975 23.6844C34.5665 24.1133 34.2946 24.6539 34.1938 25.2375C34.0813 25.7844 33.975 26.2375 33.975 26.675H43.9625C43.7437 25.0313 43.1844 23.9187 42.4125 23.1375ZM32.6406 11.4875H45.0719V14.4781H32.6406V11.4875Z" fill="black"/>
</svg>
