<svg width="90" height="90" viewBox="0 0 90 90" fill="none" xmlns="http://www.w3.org/2000/svg">
<path d="M57.1875 57.1875C63.9185 57.1875 69.375 51.731 69.375 45C69.375 38.269 63.9185 32.8125 57.1875 32.8125C50.4565 32.8125 45 38.269 45 45C45 51.731 50.4565 57.1875 57.1875 57.1875Z" stroke="black" stroke-width="4.16667" stroke-linecap="round" stroke-linejoin="round"/>
<path d="M32.8125 57.1875C30.402 57.1875 28.0457 57.9023 26.0415 59.2415C24.0373 60.5806 22.4752 62.4841 21.5527 64.711C20.6303 66.938 20.3889 69.3885 20.8592 71.7527C21.3294 74.1168 22.4902 76.2884 24.1946 77.9929C25.8991 79.6973 28.0707 80.8581 30.4348 81.3283C32.799 81.7986 35.2495 81.5572 37.4765 80.6348C39.7034 79.7123 41.6069 78.1502 42.946 76.146C44.2852 74.1418 45 71.7855 45 69.375V57.1875M32.8125 57.1875H45M32.8125 57.1875C29.5802 57.1875 26.4802 55.9035 24.1946 53.6179C21.909 51.3323 20.625 48.2323 20.625 45C20.625 41.7677 21.909 38.6677 24.1946 36.3821C26.4802 34.0965 29.5802 32.8125 32.8125 32.8125M45 57.1875V32.8125M45 8.4375H57.1875C60.4198 8.4375 63.5198 9.72154 65.8054 12.0071C68.091 14.2927 69.375 17.3927 69.375 20.625C69.375 23.8573 68.091 26.9573 65.8054 29.2429C63.5198 31.5285 60.4198 32.8125 57.1875 32.8125H45M45 8.4375V32.8125M45 8.4375H32.8125C29.5802 8.4375 26.4802 9.72154 24.1946 12.0071C21.909 14.2927 20.625 17.3927 20.625 20.625C20.625 23.8573 21.909 26.9573 24.1946 29.2429C26.4802 31.5285 29.5802 32.8125 32.8125 32.8125M45 32.8125H32.8125" stroke="black" stroke-width="4.16667" stroke-linecap="round" stroke-linejoin="round"/>
</svg>
