<svg width="90" height="90" viewBox="0 0 90 90" fill="none" xmlns="http://www.w3.org/2000/svg">
<path d="M88.3012 40.9893L49.0049 1.6987C48.4669 1.16039 47.8281 0.733372 47.125 0.442029C46.4218 0.150687 45.6682 0.000732422 44.9071 0.000732422C44.146 0.000732422 43.3924 0.150687 42.6893 0.442029C41.9862 0.733372 41.3473 1.16039 40.8093 1.6987L32.6531 9.85495L43.0031 20.2049C44.2237 19.7882 45.5369 19.723 46.7929 20.0168C48.0488 20.3106 49.1968 20.9516 50.1059 21.8665C51.015 22.7815 51.6486 23.9336 51.9343 25.1914C52.2201 26.4492 52.1464 27.762 51.7218 28.9799L61.6949 38.9587C63.1704 38.4392 64.7789 38.4376 66.2554 38.9542C67.7319 39.4709 68.9885 40.4749 69.8182 41.801C70.6479 43.1271 71.0013 44.6963 70.8202 46.25C70.6391 47.8038 69.9343 49.2496 68.8218 50.3493C67.6956 51.4824 66.2109 52.1894 64.6214 52.3494C63.0318 52.5095 61.436 52.1127 60.1065 51.2268C58.777 50.3409 57.7963 49.0209 57.332 47.4923C56.8676 45.9637 56.9484 44.3212 57.5606 42.8456L48.2624 33.5418V58.0274C49.6758 58.727 50.8066 59.8899 51.4665 61.3222C52.1264 62.7545 52.2755 64.3697 51.8889 65.8985C51.5023 67.4274 50.6034 68.7776 49.342 69.7241C48.0806 70.6705 46.5329 71.1561 44.9569 71.0998C43.381 71.0435 41.8719 70.4488 40.6812 69.4147C39.4905 68.3807 38.6902 66.9698 38.4137 65.4173C38.1372 63.8647 38.4011 62.2643 39.1615 60.8827C39.9219 59.5011 41.1328 58.4219 42.5924 57.8249V33.1143C41.7503 32.7693 40.9848 32.2609 40.3401 31.6186C39.6953 30.9763 39.1841 30.2127 38.8359 29.3719C38.4876 28.5311 38.3092 27.6297 38.311 26.7196C38.3128 25.8095 38.4947 24.9088 38.8462 24.0693L28.6481 13.8656L1.70431 40.8093C1.16601 41.3474 0.738987 41.9862 0.447645 42.6893C0.156302 43.3924 0.00634766 44.146 0.00634766 44.9071C0.00634766 45.6682 0.156302 46.4218 0.447645 47.125C0.738987 47.8281 1.16601 48.4669 1.70431 49.0049L41.0006 88.3012C41.5386 88.8395 42.1774 89.2665 42.8805 89.5579C43.5837 89.8492 44.3373 89.9992 45.0984 89.9992C45.8595 89.9992 46.6131 89.8492 47.3162 89.5579C48.0193 89.2665 48.6581 88.8395 49.1962 88.3012L88.3068 49.1906C89.3926 48.1032 90.0024 46.6294 90.0024 45.0928C90.0024 43.5561 89.3926 42.0823 88.3068 40.9949" fill="black"/>
</svg>
