<svg width="200" height="150" viewBox="0 0 200 150" fill="none" xmlns="http://www.w3.org/2000/svg">
<path d="M200 12.5V137.5C200 144.594 194.594 150 187.5 150H175V36.5563L100 90.4313L25 36.5563V150H12.5C5.40625 150 0 144.594 0 137.5V12.5C0 8.95 1.3375 5.825 3.58125 3.6125C4.74983 2.4433 6.14156 1.52098 7.67371 0.900394C9.20586 0.279804 10.8471 -0.0263957 12.5 6.8808e-07H16.6688L100 60.4188L183.331 6.8808e-07H187.5C191.05 6.8808e-07 194.175 1.3375 196.419 3.6125C198.663 5.825 200 8.95 200 12.5Z" fill="black"/>
</svg>
