<svg width="80" height="80" viewBox="0 0 80 80" fill="none" xmlns="http://www.w3.org/2000/svg">
<path d="M79.375 0.625V79.375H0.625V0.625H79.375ZM74.1455 5.85449H5.85449V74.1455H74.1455V5.85449ZM60.6104 59.2041C60.6104 58.1494 60.2441 57.2705 59.5117 56.5674C58.7793 55.8643 57.8271 55.1904 56.6553 54.5459C55.4834 53.9014 54.2676 53.3008 53.0078 52.7441C51.748 52.1875 50.5176 51.4697 49.3164 50.5908C48.1152 49.7119 47.1777 48.7305 46.5039 47.6465C45.8301 46.5625 45.4492 45.127 45.3613 43.3398C45.3613 41.7285 45.7275 40.3516 46.46 39.209C47.1924 38.0664 48.1445 37.1436 49.3164 36.4404C50.4883 35.7373 51.7773 35.21 53.1836 34.8584C54.5898 34.5068 55.9961 34.3457 57.4023 34.375C57.959 34.375 58.5596 34.3896 59.2041 34.4189C59.8486 34.4482 60.5078 34.4922 61.1816 34.5508C61.8555 34.6094 62.5 34.7266 63.1152 34.9023C63.7305 35.0781 64.3164 35.2832 64.873 35.5176V40.8789C63.8477 40.1172 62.7197 39.6045 61.4893 39.3408C60.2588 39.0771 59.0137 38.9307 57.7539 38.9014C57.0801 38.9014 56.3623 38.96 55.6006 39.0771C54.8389 39.1943 54.1064 39.4141 53.4033 39.7363C52.7002 40.0586 52.1436 40.498 51.7334 41.0547C51.3232 41.6113 51.1035 42.3145 51.0742 43.1641C51.0742 43.9258 51.2207 44.5703 51.5137 45.0977C51.8066 45.625 52.2461 46.1084 52.832 46.5479C53.5938 47.1338 54.4141 47.6172 55.293 47.998C56.1719 48.3789 57.0508 48.7744 57.9297 49.1846C58.9258 49.6533 59.9219 50.21 60.918 50.8545C61.9141 51.499 62.8076 52.2168 63.5986 53.0078C64.3896 53.7988 65.0488 54.707 65.5762 55.7324C66.1035 56.7578 66.3525 57.8857 66.3232 59.1162C66.3232 60.874 65.957 62.3242 65.2246 63.4668C64.4922 64.6094 63.54 65.5322 62.3682 66.2354C61.1963 66.9385 59.8779 67.4219 58.4131 67.6855C56.9482 67.9492 55.4834 68.0957 54.0186 68.125C53.4912 68.125 52.832 68.0811 52.041 67.9932C51.25 67.9053 50.4297 67.7881 49.5801 67.6416C48.7305 67.4951 47.9248 67.3047 47.1631 67.0703C46.4014 66.8359 45.8154 66.5723 45.4053 66.2793V60.6982C45.9033 61.1377 46.4893 61.5332 47.1631 61.8848C47.8369 62.2363 48.5693 62.5586 49.3604 62.8516C50.1514 63.1445 50.9131 63.335 51.6455 63.4229C52.3779 63.5107 53.1104 63.584 53.8428 63.6426C54.5752 63.6426 55.3369 63.5986 56.1279 63.5107C56.9189 63.4229 57.6514 63.2031 58.3252 62.8516C58.999 62.5 59.541 62.0459 59.9512 61.4893C60.3613 60.9326 60.5811 60.1709 60.6104 59.2041ZM28.7061 68.125C27.5049 68.125 26.3477 67.9492 25.2344 67.5977C24.1211 67.2461 23.0811 66.7188 22.1143 66.0156C21.1475 65.3125 20.3271 64.4922 19.6533 63.5547C18.9795 62.6172 18.4375 61.5625 18.0273 60.3906L22.5537 58.9844C23.0225 60.2441 23.7695 61.2842 24.7949 62.1045C25.8203 62.9248 27.0508 63.3496 28.4863 63.3789C29.5996 63.3789 30.4932 63.1152 31.167 62.5879C31.8408 62.0605 32.3682 61.3721 32.749 60.5225C33.1299 59.6729 33.3789 58.7646 33.4961 57.7979C33.6133 56.8311 33.6865 55.9082 33.7158 55.0293V34.9023H39.1211V55.8643C39.1211 57.5049 38.916 59.0723 38.5059 60.5664C38.0957 62.0605 37.4658 63.3643 36.6162 64.4775C35.7666 65.5908 34.6973 66.4697 33.4082 67.1143C32.1191 67.7588 30.5518 68.0957 28.7061 68.125Z" fill="black"/>
</svg>
