<svg width="92" height="100" viewBox="0 0 92 100" fill="none" xmlns="http://www.w3.org/2000/svg">
<path d="M57.585 28.6667H57.5844H53.7511C52.8811 28.6667 52.0374 28.2914 51.4085 27.6078C50.7782 26.9227 50.4178 25.9853 50.4178 25C50.4178 24.0147 50.7782 23.0773 51.4085 22.3923C52.0374 21.7086 52.8811 21.3334 53.7511 21.3334H57.5839C60.4864 21.3365 63.2786 22.5908 65.3448 24.8367C67.4123 27.084 68.5815 30.1392 68.5844 33.3338V37.5C68.5844 38.4853 68.2239 39.4227 67.5937 40.1078C66.9647 40.7914 66.121 41.1667 65.2511 41.1667C64.3811 41.1667 63.5374 40.7914 62.9085 40.1078C62.2782 39.4227 61.9178 38.4853 61.9178 37.5V33.3334V33.3329C61.9166 32.1085 61.469 30.9272 60.6618 30.0498C59.8534 29.171 58.7478 28.6679 57.585 28.6667ZM34.5839 67.1667H34.5844H38.4178C39.2877 67.1667 40.1314 67.5419 40.7604 68.2256C41.3906 68.9106 41.7511 69.8481 41.7511 70.8334C41.7511 71.8186 41.3906 72.7561 40.7604 73.4411C40.1314 74.1248 39.2877 74.5 38.4178 74.5H34.585C31.6824 74.4969 28.8902 73.2425 26.824 70.9967C24.7565 68.7494 23.5874 65.6941 23.5844 62.4996V58.3334C23.5844 57.3481 23.9449 56.4107 24.5751 55.7256C25.2041 55.042 26.0478 54.6667 26.9178 54.6667C27.7877 54.6667 28.6314 55.042 29.2604 55.7256C29.8906 56.4107 30.2511 57.3481 30.2511 58.3334V62.5V62.5005C30.2522 63.7248 30.6998 64.9062 31.507 65.7836C32.3155 66.6624 33.421 67.1654 34.5839 67.1667ZM68.5844 54.1667V54.6667H69.0844H80.5844C81.4544 54.6667 82.2981 55.042 82.927 55.7256C83.5573 56.4107 83.9177 57.3481 83.9177 58.3334C83.9177 59.3186 83.5573 60.2561 82.927 60.9411C82.2981 61.6247 81.4544 62 80.5844 62H77.6021H77.1794L77.1091 62.4168C76.1074 68.3507 73.7481 73.9118 70.2518 78.5881L69.9576 78.9816L70.3459 79.2826C73.214 81.5066 76.4667 83.0828 79.9111 83.9152L79.9123 83.9155C80.765 84.1195 81.5211 84.6865 82.0044 85.5084C82.4884 86.3313 82.6542 87.3352 82.4595 88.2966C82.2649 89.2577 81.7293 90.0839 80.9846 90.6014C80.2417 91.1175 79.3479 91.2882 78.4966 91.0846L78.4963 91.0845C73.7359 89.9486 69.2639 87.6768 65.4043 84.4299L65.0812 84.1581L64.7591 84.4311C60.9325 87.6749 56.4911 89.9469 51.7597 91.0847C50.9088 91.2864 50.0161 91.1143 49.2746 90.5974C48.5307 90.0789 47.9964 89.2521 47.8032 88.291C47.6099 87.3297 47.777 86.3264 48.2619 85.5046C48.7461 84.6838 49.5026 84.1182 50.3553 83.9157L50.3593 83.9147C53.7838 83.0715 57.0123 81.4812 59.8492 79.2425L60.2308 78.9414L59.9405 78.5514C58.5466 76.6794 57.3304 74.658 56.3108 72.5183L56.3109 72.5182L56.3055 72.5076C56.0871 72.0759 55.9497 71.5992 55.9028 71.1058C55.8559 70.6124 55.9006 70.1141 56.0339 69.6409C56.1672 69.1677 56.3858 68.7307 56.6751 68.3552C56.9642 67.9798 57.3176 67.6741 57.7127 67.4539C58.1076 67.2339 58.5371 67.1033 58.9758 67.0681C59.4144 67.0328 59.8557 67.0935 60.2742 67.2475C60.6928 67.4014 61.0816 67.6462 61.4165 67.9696C61.7516 68.2931 62.0258 68.6886 62.221 69.134L62.2246 69.1422L62.2284 69.1503C62.9338 70.6148 63.7562 72.0096 64.6863 73.3188L65.0922 73.8901L65.5004 73.3204C67.7695 70.1531 69.3966 66.5034 70.2774 62.6104L70.4155 62H69.7897H49.9178C49.0478 62 48.2041 61.6247 47.5751 60.9411C46.9449 60.2561 46.5844 59.3186 46.5844 58.3334C46.5844 57.3481 46.9449 56.4107 47.5751 55.7256C48.2041 55.042 49.0478 54.6667 49.9178 54.6667H61.4178H61.9178V54.1667V52.0834C61.9178 51.0981 62.2782 50.1607 62.9085 49.4756C63.5374 48.792 64.3811 48.4167 65.2511 48.4167C66.121 48.4167 66.9647 48.792 67.5937 49.4756C68.2239 50.1606 68.5844 51.0981 68.5844 52.0834V54.1667ZM34.9136 15.6412L34.9136 15.6412L41.6481 44.9299C41.6482 44.9304 41.6483 44.9308 41.6484 44.9312C41.8606 45.8823 41.7175 46.8844 41.255 47.7163C40.7929 48.5477 40.0546 49.1342 39.2113 49.3638C38.3695 49.593 37.4766 49.4527 36.7236 48.9661C35.9691 48.4786 35.4116 47.6788 35.1863 46.7322C35.1862 46.7316 35.186 46.7309 35.1859 46.7303L33.0401 37.3881L32.9509 37H32.5528H21.2828H20.8846L20.7954 37.3881L18.6496 46.7303C18.6495 46.7309 18.6493 46.7315 18.6492 46.7321C18.4239 47.6788 17.8664 48.4786 17.1119 48.9661L17.3833 49.386L17.1119 48.9661C16.3589 49.4527 15.466 49.593 14.6243 49.3638C13.7809 49.1342 13.0426 48.5477 12.5805 47.7163C12.118 46.8844 11.9749 45.8824 12.1871 44.9314C12.1872 44.9309 12.1873 44.9304 12.1874 44.9299L18.9219 15.6412L18.9219 15.6412C19.3716 13.6843 20.4087 11.9547 21.8596 10.723C23.3097 9.49216 25.0903 8.82837 26.9178 8.82837C28.7452 8.82837 30.5258 9.49216 31.9759 10.723C33.4269 11.9547 34.4639 13.6843 34.9136 15.6412ZM22.7122 29.0544L22.5711 29.6667H23.1994H30.6323H31.2604L31.1195 29.0546L28.4477 17.4421L28.4415 17.4152L28.4324 17.3891C28.3208 17.0702 28.1203 16.7888 27.8509 16.5869C27.5809 16.3844 27.2554 16.2726 26.9178 16.2726C26.5801 16.2726 26.2547 16.3844 25.9846 16.5869C25.7152 16.7888 25.5147 17.0702 25.4031 17.3891L25.394 17.4151L25.3879 17.4419L22.7122 29.0544Z" fill="white" stroke="black"/>
</svg>
