<svg width="90" height="62" viewBox="0 0 90 62" fill="none" xmlns="http://www.w3.org/2000/svg">
<path d="M61.5188 6.62865C61.0875 6.62865 60.795 6.68115 60.4913 6.7524V6.80115H60.5438C60.7463 7.19115 61.0912 7.47615 61.3462 7.8249C61.5487 8.22615 61.7213 8.6274 61.9238 9.0249L61.9762 8.96865C62.3288 8.72115 62.5013 8.32365 62.5013 7.7199C62.3512 7.54365 62.3288 7.3674 62.2012 7.1949C62.0513 6.94365 61.7287 6.8199 61.5262 6.62115L61.5188 6.62865ZM21.6375 56.1061H18.1612C18.0635 50.5816 17.7257 45.0639 17.1488 39.5686H17.1187L11.8313 56.1061H9.1875L3.9375 39.5686H3.9C3.48935 45.0725 3.24549 50.5875 3.16875 56.1061H0C0.20625 48.7337 0.72 41.8186 1.5375 35.3686H5.85L10.8562 50.6087H10.8863L15.9375 35.3686H20.0437C20.9513 42.9249 21.4837 49.8436 21.6487 56.1061H21.6375ZM36.7012 40.8061C35.2837 48.4749 33.4163 54.0549 31.1063 57.5312C29.2987 60.2162 27.3188 61.5549 25.17 61.5549C24.5963 61.5549 23.895 61.3824 23.0475 61.0374V59.1849C23.46 59.2487 23.9475 59.2824 24.495 59.2824C25.5 59.2824 26.3062 59.0011 26.9212 58.4499C27.66 57.7749 28.0275 57.0174 28.0275 56.1811C28.0275 55.5999 27.7388 54.4186 27.165 52.6411L23.3625 40.8061H26.775L29.5013 49.6562C30.1163 51.6661 30.375 53.0686 30.27 53.8674C31.77 49.8774 32.8125 45.5161 33.4012 40.8061H36.7012ZM82.92 56.1061H73.0575V35.3686H76.3763V53.5561H82.92V56.1061ZM70.47 56.6124L66.66 54.7374C66.9975 54.4524 67.3238 54.1449 67.6162 53.7999C69.24 51.9024 70.0462 49.0824 70.0462 45.3511C70.0462 38.4886 67.3538 35.0536 61.965 35.0536C59.325 35.0536 57.2625 35.9236 55.7775 37.6674C54.165 39.5724 53.355 42.3774 53.355 46.0862C53.355 49.7312 54.0675 52.4086 55.5075 54.1111C56.82 55.6487 58.7962 56.4174 61.4438 56.4174C62.4338 56.4174 63.3413 56.2937 64.1625 56.0499L69.1312 58.9449L70.4812 56.6124H70.47ZM58.125 51.9549C57.2812 50.6049 56.8613 48.4299 56.8613 45.4449C56.8613 40.2211 58.4513 37.6074 61.6238 37.6074C63.285 37.6074 64.5112 38.2337 65.2875 39.4824C66.1275 40.8399 66.5475 42.9924 66.5475 45.9436C66.5475 51.2086 64.9575 53.8487 61.785 53.8487C60.1162 53.8487 58.8975 53.2224 58.1175 51.9737L58.125 51.9549ZM51.9075 50.3611C51.9075 52.1236 51.2625 53.5712 49.9725 54.6962C48.6825 55.8212 46.9613 56.3836 44.7825 56.3836C42.7463 56.3836 40.7925 55.7386 38.8838 54.4524L39.7725 52.6674C41.415 53.4924 42.8962 53.8974 44.235 53.8974C45.48 53.8974 46.4588 53.6236 47.1713 53.0724C47.5274 52.8039 47.8149 52.4551 48.0104 52.0542C48.206 51.6534 48.3039 51.212 48.2962 50.7661C48.2962 49.5286 47.4338 48.4787 45.8662 47.5974C44.4113 46.7987 41.505 45.1336 41.505 45.1336C39.9225 43.9824 39.135 42.7486 39.135 40.7199C39.135 39.0324 39.7238 37.6824 40.8975 36.6511C42.0788 35.6087 43.5975 35.0949 45.4725 35.0949C47.3925 35.0949 49.1475 35.6049 50.7225 36.6324L49.9237 38.4174C48.6653 37.8646 47.3082 37.5712 45.9338 37.5549C44.8725 37.5549 44.0513 37.8099 43.4813 38.3274C43.192 38.567 42.9588 38.8672 42.7981 39.2067C42.6374 39.5462 42.5532 39.9168 42.5513 40.2924C42.5513 41.5224 43.4287 42.5799 45.0487 43.4799C46.5225 44.2861 49.5 45.9924 49.5 45.9924C51.1237 47.1362 51.93 48.3549 51.93 50.3724L51.9075 50.3611ZM87.09 28.4162C85.0838 28.3637 83.5275 28.5661 82.2262 29.1211C81.8512 29.2712 81.2513 29.2712 81.1987 29.7474C81.405 29.9462 81.435 30.2724 81.6113 30.5499C81.9113 31.0524 82.4287 31.7236 82.9087 32.0761C83.4337 32.4886 83.9587 32.8862 84.51 33.2387C85.485 33.8386 86.5913 34.1949 87.5475 34.7986C88.0913 35.1511 88.6462 35.5974 89.1975 35.9724C89.4712 36.1599 89.6475 36.4974 90 36.6174V36.5424C89.8275 36.3174 89.775 35.9911 89.6063 35.7399C89.355 35.4886 89.1038 35.2636 88.8562 35.0162C88.12 34.0459 87.2413 33.1925 86.25 32.4849C85.4475 31.9374 83.6925 31.1724 83.3625 30.2537L83.3137 30.2012C83.8612 30.1524 84.5137 29.9536 85.0387 29.8036C85.89 29.5786 86.67 29.6274 87.5513 29.4062C87.9488 29.3049 88.35 29.1812 88.7513 29.0537V28.8286C88.3012 28.3786 87.9638 27.7674 87.4987 27.3474C86.2008 26.2129 84.8167 25.181 83.3587 24.2612C82.5713 23.7587 81.5737 23.4362 80.745 23.0087C80.445 22.8587 79.9425 22.7836 79.77 22.5324C79.32 21.9849 79.0575 21.2574 78.7387 20.6049C78.0024 19.1765 77.3182 17.7218 76.6875 16.2436C76.2375 15.2611 75.9638 14.2824 75.4125 13.3824C72.825 9.11865 70.0238 6.5349 65.715 4.0074C64.7887 3.4824 63.6787 3.2574 62.505 2.9799C61.8787 2.9499 61.2525 2.9049 60.63 2.87865C60.2175 2.7024 59.82 2.22615 59.4675 1.9974C58.0425 1.0974 54.3525 -0.8526 53.3025 1.7274C52.6275 3.3549 54.3037 4.9599 54.885 5.7849C55.3162 6.35865 55.86 7.0149 56.16 7.6599C56.3363 8.0949 56.385 8.54115 56.5612 8.9949C56.9588 10.0974 57.3375 11.3274 57.8625 12.3587C58.1362 12.8837 58.4362 13.4349 58.7887 13.9074C58.9912 14.1812 59.3363 14.3087 59.415 14.7587C59.0625 15.2687 59.04 16.0112 58.8375 16.6336C57.9375 19.4724 58.29 22.9824 59.565 25.0711C59.9662 25.6936 60.9225 27.0737 62.2012 26.5449C63.3262 26.0949 63.0787 24.6699 63.4012 23.4137C63.4762 23.1137 63.4275 22.9149 63.5812 22.7124V22.7687C63.9338 23.4737 64.2862 24.1449 64.6087 24.8499C65.3812 26.0799 66.7313 27.3549 67.86 28.2062C68.46 28.6562 68.9362 29.4361 69.6862 29.7136V29.6387H69.63C69.4688 29.4212 69.255 29.3162 69.0525 29.1399C68.577 28.6744 68.1382 28.173 67.74 27.6399C66.6834 26.1962 65.7466 24.6686 64.9388 23.0724C64.5262 22.2849 64.1813 21.4374 63.8512 20.6612C63.7013 20.3612 63.7013 19.9112 63.45 19.7612C63.075 20.3087 62.5238 20.7849 62.25 21.4599C61.7738 22.5399 61.725 23.8674 61.545 25.2474C61.4438 25.2736 61.4925 25.2474 61.4438 25.2999C60.6413 25.1049 60.3675 24.2724 60.0675 23.5749C59.3175 21.7937 59.1938 18.9324 59.8425 16.8811C60.0187 16.3561 60.7687 14.6987 60.4688 14.1962C60.3112 13.7199 59.8162 13.4462 59.5425 13.0599C59.1904 12.5572 58.8889 12.0208 58.6425 11.4587C58.0425 10.0562 57.7425 8.50365 57.09 7.10115C56.79 6.4524 56.265 5.77365 55.8375 5.1774C55.3613 4.5024 54.8363 4.02615 54.4575 3.2274C54.3338 2.95365 54.1575 2.4999 54.3563 2.1999C54.4087 1.9974 54.5137 1.91865 54.7087 1.8624C55.0387 1.5924 55.965 1.9449 56.2912 2.0949C57.2175 2.4699 57.9975 2.8224 58.7738 3.3474C59.1263 3.5949 59.505 4.07115 59.955 4.1949H60.48C61.2825 4.37115 62.1863 4.2474 62.9363 4.46865C64.2675 4.89615 65.4675 5.51865 66.5438 6.19365C69.86 8.31208 72.5574 11.2695 74.3625 14.7662C74.6625 15.3437 74.7937 15.8724 75.0675 16.4724C75.5925 17.7099 76.2412 18.9587 76.7738 20.1549C77.2988 21.3362 77.805 22.5399 78.5587 23.5187C78.9337 24.0437 80.4413 24.3174 81.1162 24.5912C81.615 24.8162 82.3913 25.0224 82.8412 25.2962C83.7038 25.8212 84.5437 26.4212 85.3538 26.9986C85.7663 27.2836 87.015 27.9099 87.09 28.4162Z" fill="black"/>
</svg>
