<svg width="90" height="81" viewBox="0 0 90 81" fill="none" xmlns="http://www.w3.org/2000/svg">
<path d="M44.9849 48.7313C49.4211 48.7313 53.0174 45.135 53.0174 40.6988C53.0174 36.2625 49.4211 32.6663 44.9849 32.6663C40.5487 32.6663 36.9524 36.2625 36.9524 40.6988C36.9524 45.135 40.5487 48.7313 44.9849 48.7313Z" fill="black"/>
<path d="M44.985 26.2874C55.365 26.2874 65.2237 27.7499 72.72 30.3299C81.045 33.1949 86.1262 37.4324 86.1262 40.6987C86.1262 44.1749 80.64 48.6899 71.7337 51.6412C64.6462 53.9887 55.1588 55.2712 44.985 55.2712C34.2975 55.2712 24.7013 54.0149 17.6962 51.6187C13.3087 50.1187 9.68625 48.1687 7.2 46.0462C4.96875 44.1337 3.84375 42.2362 3.84375 40.6987C3.84375 37.4212 8.72625 33.2437 16.875 30.4012C24.375 27.7874 34.4738 26.2874 44.985 26.2874ZM44.985 22.4399C34.065 22.4399 23.5425 24.0074 15.6075 26.7749C6.0825 30.0937 0 35.2987 0 40.6987C0 46.2712 6.52875 51.8662 16.4513 55.2562C23.91 57.8062 33.9038 59.1149 44.985 59.1149C55.545 59.1149 65.4262 57.7799 72.945 55.2899C83.2575 51.8699 89.97 46.3462 89.97 40.6987C89.97 35.2799 83.6888 30.0412 73.9725 26.6924C66.0488 23.9662 55.77 22.4399 44.985 22.4399ZM32.43 33.5399C37.6162 24.5437 43.8075 16.7362 49.7925 11.5274C56.43 5.75245 62.64 3.46495 65.4675 5.09995C68.4788 6.8362 69.6525 13.8412 67.7588 23.0324C66.2513 30.3449 62.6213 39.2024 57.54 48.0187C52.2 57.2774 46.32 64.9612 40.74 69.8324C37.2525 72.8849 33.7537 75.0487 30.6712 76.1399C27.9037 77.1149 25.695 77.1449 24.3638 76.3762C21.525 74.7412 20.3438 68.4224 21.9525 59.9474C23.4338 52.1437 27.18 42.6412 32.43 33.5362M29.1 31.6162C23.6438 41.0737 19.7437 50.9737 18.1763 59.2274C16.2975 69.1387 17.7638 77.0099 22.44 79.7024C27.2738 82.4924 35.3775 79.6274 43.2712 72.7274C49.2075 67.5412 55.335 59.5349 60.87 49.9387C66.1425 40.7887 69.9263 31.5637 71.52 23.8049C73.7138 13.1662 72.2812 4.58995 67.3875 1.76995C62.6925 -0.937554 55.02 1.88245 47.265 8.63245C40.95 14.1299 34.4888 22.2749 29.1 31.6162ZM32.4412 48.0337C27.24 39.0562 23.5688 29.7899 22.0463 22.0124C20.355 13.3687 21.4762 6.8512 24.3037 5.2162C27.3113 3.47245 33.9675 5.9587 40.9837 12.1874C46.5713 17.1449 52.4287 24.7124 57.525 33.5212C62.8838 42.7724 66.6 51.7012 68.04 58.9649C68.94 63.5137 69.0675 67.6274 68.4713 70.8412C67.935 73.7287 66.8588 75.6562 65.5275 76.4287C62.6925 78.0674 56.6287 75.9337 50.0888 70.3049C44.07 65.1299 37.7062 57.1387 32.4412 48.0412M29.115 49.9687C34.5863 59.4187 41.2125 67.7437 47.5838 73.2187C55.23 79.7999 62.7787 82.4549 67.4512 79.7512C72.2775 76.9574 73.845 68.5049 71.8088 58.2187C70.2787 50.4899 66.405 41.1824 60.8512 31.5937C55.5637 22.4549 49.455 14.5687 43.5338 9.3112C35.4113 2.09995 27.2663 -0.945054 22.3762 1.8862C17.6887 4.6012 16.3013 12.6599 18.2738 22.7474C19.8825 30.9712 23.7113 40.6312 29.115 49.9649" fill="black"/>
</svg>
