<svg width="63" height="92" viewBox="0 0 63 92" fill="none" xmlns="http://www.w3.org/2000/svg">
<path d="M31.5001 39.2154L1.79907 20.7892L31.5001 2.14673L61.2011 20.7892L31.5001 39.2154Z" stroke="white" stroke-width="3" stroke-linecap="round" stroke-linejoin="round"/>
<path d="M18.8716 31.2885C18.694 32.5724 18.5164 33.6447 18.5164 34.9309C18.5164 43.716 24.3874 50.5729 31.4999 50.5729C38.6125 50.5729 44.4835 43.4997 44.4835 34.9309C44.4835 33.6447 44.3059 32.5724 44.1282 31.2885" stroke="white" stroke-width="3" stroke-linecap="round" stroke-linejoin="round"/>
<path d="M31.5 90C46.1355 90 58 83.2843 58 75C58 66.7157 46.1355 60 31.5 60C16.8645 60 5 66.7157 5 75C5 83.2843 16.8645 90 31.5 90Z" stroke="white" stroke-width="3" stroke-linecap="round" stroke-linejoin="round"/>
<path d="M1.79907 20.7891V41.3575" stroke="white" stroke-width="3" stroke-linecap="round" stroke-linejoin="round"/>
</svg>
