<svg width="330" height="126" viewBox="0 0 330 126" fill="none" xmlns="http://www.w3.org/2000/svg">
<path d="M1.58132 55.4551C-2.88973 56.5843 65.5835 75.5375 91.4956 68.8189C117.408 62.1003 116.193 59.6243 138.542 57.806C160.891 55.9877 208.674 41.8668 208.674 41.8668C208.674 41.8668 224.361 38.7794 228.822 31.5948C235.339 21.099 217.123 3.6593 218.305 1.20398C219.487 -1.25133 206.677 5.59557 202.951 11.5174C200.103 16.0448 199.822 24.7264 199.822 24.7264C199.822 24.7264 199.738 40.2974 222.319 59.0488C244.901 77.8001 273.332 84.534 290.646 93.8319C307.961 103.13 329.177 125.114 329.177 125.114" stroke="#B7693A"/>
</svg>
